<svg width="141" height="37" viewBox="0 0 141 37" fill="none" xmlns="http://www.w3.org/2000/svg">
<path d="M18.7523 19.3176C16.7626 21.3591 15.6661 24.0692 15.6661 26.9546V30.535H20.7152V22.3757C20.7152 21.7427 21.2207 21.2248 21.8438 21.2248H29.7116V16.1554H26.2056C23.3896 16.1554 20.7447 17.2789 18.7523 19.3176Z" fill="black"/>
<path d="M11.0998 19.3176C13.115 21.3591 14.2256 24.0692 14.2256 26.9546V30.535H9.11174V22.3757C9.11174 21.7427 8.59981 21.2248 7.96871 21.2248H9.1807e-07V16.1554H3.55098C6.40313 16.1554 9.08194 17.2789 11.0998 19.3176Z" fill="black"/>
<path d="M11.0972 11.5396C9.07762 13.5767 6.39656 14.6992 3.542 14.6992H0L6.09819e-08 9.52999H8.07188C8.69809 9.52999 9.21045 9.01252 9.21045 8.37458V0.319577L14.2256 0.319577V3.90901C14.2256 6.79205 13.1141 9.49987 11.0972 11.5396Z" fill="black"/>
<path d="M18.7549 11.5396C20.7489 13.5767 23.3961 14.6992 26.2145 14.6992H29.7116V9.52999H21.7419C21.1237 9.52999 20.6178 9.01252 20.6178 8.37458V0.319577L15.6661 0.319577V3.90901C15.6661 6.79205 16.7635 9.49987 18.7549 11.5396Z" fill="black"/>
<path d="M107.589 25.3979L107.576 8.58862H103.399V10.8875C101.725 9.11363 99.3893 8.1418 96.7592 8.1418C90.3631 8.1418 85.5405 13.0166 85.5405 19.482C85.5405 25.9475 90.3631 30.8424 96.7592 30.8424C100.357 30.8424 102.523 29.1713 103.721 27.7347H105.328C105.735 29.7253 107.076 30.4693 110.193 30.4693H110.414V26.334H108.522C108.007 26.334 107.587 25.914 107.587 25.3979H107.589ZM103.834 19.482C103.834 23.8095 100.901 26.9483 96.8609 26.9483C92.8207 26.9483 89.8879 23.8072 89.8879 19.482C89.8879 15.1568 92.8207 12.0336 96.8609 12.0336C100.901 12.0336 103.834 15.1658 103.834 19.482Z" fill="black"/>
<path d="M72.6146 11.632C68.9223 11.632 66.3077 14.0529 65.5493 17.3616H79.6799C79.0212 14.2547 76.4067 11.632 72.6146 11.632ZM72.6146 30.6768C66.0283 30.6768 61.378 25.734 61.378 19.3992C61.378 13.0846 66.0283 8.1418 72.6146 8.1418C79.6599 8.1418 84.5697 13.831 83.7115 20.8518H65.4495C66.0084 24.4832 68.7027 27.1866 72.6146 27.1866C75.4886 27.1866 78.0632 25.8954 79.2408 23.4341H83.452C82.1148 27.7111 77.704 30.6768 72.6146 30.6768Z" fill="black"/>
<path d="M113.399 13.5863L113.412 37H117.589V28.0967C119.262 29.8706 121.598 30.8424 124.228 30.8424C130.625 30.8424 135.447 25.9676 135.447 19.5022C135.447 13.0368 130.625 8.14187 124.228 8.14187C120.63 8.14187 118.464 9.81297 117.266 11.2495H115.66C115.253 9.25891 113.911 8.51496 110.795 8.51496H110.574V12.6503H112.466C112.981 12.6503 113.401 13.0703 113.401 13.5863H113.399ZM117.154 19.5022C117.154 15.1748 120.087 12.0359 124.127 12.0359C128.167 12.0359 131.1 15.177 131.1 19.5022C131.1 23.8274 128.167 26.9506 124.127 26.9506C120.087 26.9506 117.154 23.8185 117.154 19.5022Z" fill="black"/>
<path d="M44.0872 3.68954V14.8388H49.6321C54.3591 14.8388 56.8324 13.2259 56.8324 9.25409C56.8324 5.32261 54.3591 3.68954 49.6321 3.68954H44.0872ZM44.0872 30.4034H40.2178V0H49.9512C57.4906 0 60.8813 3.81051 60.8813 9.27425C60.8813 14.7178 57.4906 18.5283 49.9512 18.5283H44.0872V30.4034Z" fill="black"/>
<path d="M48.3466 15.9136H52.7773L62.0296 30.4034H57.5989L48.3466 15.9136Z" fill="black"/>
<path d="M135.396 11.0398C135.396 10.5175 135.523 10.0351 135.775 9.5926C136.028 9.14648 136.368 8.79466 136.799 8.53352C137.23 8.27238 137.697 8.1418 138.198 8.1418C138.703 8.1418 139.17 8.27238 139.601 8.53352C140.032 8.79103 140.372 9.14285 140.621 9.58897C140.874 10.0351 141 10.5175 141 11.0398C141 11.5584 140.874 12.0408 140.621 12.4869C140.369 12.933 140.029 13.2849 139.597 13.546C139.17 13.8072 138.703 13.9377 138.198 13.9377C137.697 13.9377 137.23 13.8072 136.799 13.546C136.368 13.2849 136.028 12.933 135.775 12.4869C135.523 12.0408 135.396 11.5584 135.396 11.0398ZM140.46 11.0398C140.46 10.6154 140.358 10.2201 140.155 9.86099C139.952 9.4983 139.675 9.21176 139.327 8.99777C138.98 8.78378 138.605 8.6786 138.198 8.6786C137.791 8.6786 137.413 8.78378 137.066 8.99777C136.718 9.21176 136.445 9.4983 136.242 9.86099C136.038 10.2201 135.936 10.6154 135.936 11.0398C135.936 11.4641 136.038 11.8595 136.242 12.2222C136.445 12.5849 136.718 12.8714 137.066 13.0854C137.413 13.2957 137.791 13.4009 138.198 13.4009C138.605 13.4009 138.98 13.2957 139.327 13.0854C139.675 12.8714 139.952 12.5849 140.155 12.2222C140.358 11.8595 140.46 11.4641 140.46 11.0398ZM137.237 12.3926V9.59985H138.451C139.008 9.59985 139.341 9.92265 139.341 10.3724C139.341 10.7532 139.106 10.9999 138.766 11.076C139.135 11.076 139.303 11.1885 139.303 11.5076V12.3926H138.766V11.6781C138.766 11.4569 138.658 11.3517 138.416 11.3517H137.774V12.3926H137.237ZM137.774 10.8693H138.279C138.612 10.8693 138.801 10.7351 138.801 10.4703C138.801 10.2128 138.64 10.1185 138.272 10.1185H137.774V10.8693Z" fill="black"/>
</svg>
